<svg
  xmlns="http://www.w3.org/2000/svg"
  width="64"
  height="64"
  viewBox="0 0 64 64"
  fill="none"
>
  <title>Moddrop favicon</title>
  <rect width="64" height="64" rx="16" fill="#050508" />
  <path
    fill="#F5F7F2"
    fill-rule="evenodd"
    d="M14 14H50V40L42 48H31L22 56V48H14V14ZM20 20V42H28V44.5L33.5 39H39.5L44 34.5V20H20Z"
    clip-rule="evenodd"
  />
  <path
    fill="#33FF33"
    d="M32 20L38 26L35.8 28.2L39.2 31.6L42 28.8L44.2 31L38 37.2V44H41V47H38V51H34.8V47H31.8V44H34.8V37.2L28.8 31.2L31 29L33.8 31.8L37.2 28.4L35 26.2L32 20Z"
  />
</svg>
