<svg xmlns="http://www.w3.org/2000/svg" viewBox="0 0 512 512" role="img" aria-labelledby="title">
<title id="title">Moddrop icon (black)</title>

<path d="M13.44 14.45 L13.77 328.23 L14.45 327.90 L15.45 326.89 L16.46 326.89 L17.13 326.55 L17.47 325.88 L18.14 325.54 L19.15 325.54 L19.82 325.21 L21.17 323.86 L22.17 322.86 L23.18 322.86 L23.85 322.52 L24.19 321.85 L24.86 321.51 L25.87 321.51 L26.54 321.18 L26.88 320.50 L27.55 320.17 L28.56 320.17 L29.23 319.83 L29.56 319.16 L30.24 318.82 L31.24 318.82 L31.92 318.49 L33.26 317.14 L34.27 316.14 L35.28 316.14 L35.95 315.80 L36.28 315.13 L36.96 314.79 L37.96 314.79 L38.64 314.46 L38.97 313.78 L39.64 313.45 L40.65 313.45 L41.32 313.11 L42.67 311.77 L43.67 310.76 L44.68 310.76 L45.35 310.43 L45.69 309.75 L46.36 309.42 L47.37 309.42 L48.04 309.08 L48.38 308.41 L49.05 308.07 L50.06 308.07 L50.73 307.74 L52.07 306.39 L53.08 305.39 L54.09 305.39 L54.76 305.05 L55.10 304.38 L55.77 304.04 L56.78 304.04 L57.45 303.71 L58.79 302.36 L59.80 301.35 L60.81 301.35 L61.48 301.02 L61.82 300.35 L62.49 300.01 L63.50 300.01 L64.17 299.67 L64.50 299.00 L65.18 298.67 L66.18 298.67 L66.86 298.33 L68.20 296.99 L69.21 295.98 L70.22 295.98 L70.89 295.64 L71.22 294.97 L71.90 294.64 L72.90 294.64 L73.57 294.30 L73.91 293.63 L74.58 293.29 L75.59 293.29 L76.26 292.96 L76.60 292.28 L77.27 291.95 L78.28 291.95 L78.95 291.61 L79.29 290.94 L79.96 290.60 L80.97 290.60 L81.64 290.27 L82.98 288.92 L83.99 287.92 L85.00 287.92 L85.67 287.58 L86.01 286.91 L86.68 286.57 L88.36 286.24 L88.36 156.89 L89.03 156.22 L89.70 156.56 L91.38 158.57 L92.05 158.91 L93.06 158.91 L94.07 159.92 L95.41 161.26 L96.08 161.60 L97.09 161.60 L98.10 162.60 L99.44 163.95 L100.12 164.28 L101.12 164.28 L102.13 165.29 L103.48 166.64 L104.15 166.97 L105.15 166.97 L106.16 167.98 L107.51 169.32 L108.18 169.66 L109.19 169.66 L110.19 170.67 L111.54 172.01 L112.21 172.35 L113.22 172.35 L114.90 173.69 L115.91 175.03 L116.91 176.04 L117.59 176.38 L118.59 176.38 L119.60 177.39 L120.94 178.73 L121.62 179.07 L122.62 179.07 L123.63 180.07 L124.98 181.42 L125.65 181.75 L126.66 181.75 L127.66 182.76 L129.01 184.10 L129.68 184.44 L130.69 184.44 L132.37 185.78 L133.38 187.13 L134.38 188.14 L135.06 188.47 L136.06 188.47 L137.07 189.48 L138.41 190.82 L139.09 191.16 L140.09 191.16 L141.10 192.17 L142.45 193.51 L143.12 193.85 L144.13 193.85 L145.13 194.86 L146.48 196.20 L147.15 196.54 L148.16 196.54 L149.17 197.54 L150.51 198.89 L151.18 199.22 L152.19 199.22 L153.20 200.23 L154.54 201.57 L155.21 201.91 L156.22 201.91 L157.23 202.92 L158.57 204.26 L159.24 204.60 L160.25 204.60 L161.26 205.61 L162.60 206.95 L163.28 207.29 L164.28 207.29 L165.29 208.29 L166.64 209.64 L167.31 209.97 L168.31 209.97 L169.99 211.32 L170.67 211.99 L171.34 212.66 L172.01 213.33 L172.01 215.01 L171.34 215.69 L170.67 216.02 L169.66 217.03 L169.32 217.70 L169.32 218.71 L168.99 219.38 L168.31 219.72 L167.98 220.39 L167.98 221.40 L166.97 222.40 L165.63 223.75 L165.29 224.42 L165.29 225.43 L164.96 226.10 L164.28 226.44 L163.95 227.11 L163.95 228.12 L163.61 228.79 L162.94 229.12 L162.60 229.80 L162.60 230.80 L162.27 231.48 L161.60 231.81 L161.26 232.48 L161.26 233.49 L160.92 234.16 L160.25 234.50 L159.92 235.17 L159.92 236.18 L159.58 236.85 L158.91 237.19 L158.57 237.86 L158.57 238.87 L158.24 239.54 L157.56 239.87 L157.23 240.55 L157.23 241.55 L156.89 242.23 L156.22 242.56 L155.88 243.23 L155.88 244.24 L155.55 244.91 L154.88 245.25 L154.54 245.92 L154.54 246.93 L153.53 247.94 L153.20 251.30 L152.19 251.97 L151.85 252.64 L151.85 253.65 L151.52 254.32 L150.85 254.66 L150.51 255.33 L150.51 256.34 L149.50 257.34 L149.17 260.70 L148.16 261.38 L147.82 262.05 L147.82 263.06 L146.81 264.06 L146.48 267.42 L145.47 268.09 L145.13 271.45 L144.13 272.13 L143.79 275.49 L142.78 276.16 L142.45 279.52 L141.44 280.19 L141.10 283.55 L140.09 284.22 L139.76 288.92 L138.75 289.60 L138.41 294.30 L137.41 294.97 L137.07 301.02 L136.06 301.69 L135.73 310.43 L134.72 311.10 L134.38 323.86 L133.38 324.54 L133.38 336.29 L134.38 336.97 L134.72 348.39 L135.73 349.06 L136.06 356.45 L137.07 357.12 L137.41 361.83 L138.41 362.50 L138.75 367.20 L139.76 367.87 L140.09 371.23 L141.10 371.91 L141.44 375.27 L142.45 375.94 L142.78 379.30 L143.79 380.30 L143.79 381.31 L144.13 381.98 L144.80 382.32 L145.13 382.99 L145.13 384.00 L145.47 384.67 L146.48 385.34 L146.81 388.70 L147.82 389.38 L149.17 391.06 L149.17 392.06 L149.50 392.73 L150.17 393.07 L150.51 393.74 L150.51 394.75 L150.85 395.42 L151.52 395.76 L151.85 396.43 L151.85 397.44 L152.19 398.11 L153.53 399.45 L154.54 400.46 L154.54 401.47 L154.88 402.14 L155.88 403.15 L157.23 404.16 L158.57 405.84 L158.57 406.85 L158.91 407.52 L159.92 408.52 L160.59 408.86 L161.26 409.87 L161.93 410.20 L162.60 410.88 L163.95 412.56 L163.95 413.56 L164.28 414.24 L165.29 415.24 L165.96 415.58 L166.64 416.25 L167.31 416.92 L167.98 417.60 L168.65 418.27 L169.32 418.94 L169.99 419.61 L170.67 420.28 L171.34 420.96 L172.01 421.63 L172.68 422.30 L173.35 422.97 L173.69 423.64 L174.70 424.65 L175.37 424.99 L176.38 424.99 L178.06 426.33 L178.73 427.00 L179.07 427.67 L180.07 428.35 L180.41 429.02 L181.42 430.03 L182.09 430.36 L183.10 430.36 L184.78 431.71 L185.78 433.05 L186.79 434.06 L187.46 434.39 L188.47 434.39 L189.14 434.73 L189.48 435.40 L190.15 435.74 L191.16 435.74 L192.17 436.75 L193.51 438.09 L194.18 438.43 L195.19 438.43 L195.86 438.76 L196.20 439.43 L196.87 439.77 L197.88 439.77 L198.55 440.10 L198.89 440.78 L199.56 441.11 L200.57 441.11 L201.24 441.45 L201.57 442.12 L202.25 442.46 L203.25 442.46 L203.93 442.79 L204.26 443.46 L204.93 443.80 L205.94 443.80 L206.61 444.14 L206.95 444.81 L207.62 445.14 L208.63 445.14 L209.64 446.15 L213.00 446.49 L213.67 447.50 L217.03 447.83 L217.70 448.84 L218.37 449.18 L219.38 449.18 L220.39 450.18 L225.09 450.52 L225.76 451.53 L231.81 451.86 L232.48 452.87 L241.22 453.21 L241.89 454.22 L269.77 454.22 L270.45 453.21 L279.18 452.87 L279.85 451.86 L285.90 451.53 L286.57 450.52 L291.28 450.18 L291.95 449.18 L295.31 448.84 L296.31 447.83 L297.32 447.83 L297.99 447.50 L298.67 446.49 L302.03 446.15 L303.03 445.14 L304.04 445.14 L304.71 444.81 L305.39 443.80 L308.75 443.46 L309.75 442.46 L310.76 442.46 L311.43 442.12 L311.77 441.45 L312.44 441.11 L313.45 441.11 L314.12 440.78 L314.46 440.10 L315.13 439.77 L316.14 439.77 L316.81 439.43 L318.15 438.09 L319.16 437.08 L320.17 437.08 L320.84 436.75 L322.18 435.40 L323.19 434.39 L324.20 434.39 L324.87 434.06 L326.22 432.71 L327.22 431.71 L328.23 431.71 L328.90 431.37 L329.91 430.36 L330.25 429.69 L331.25 429.02 L331.59 428.35 L332.26 427.67 L333.94 426.33 L334.95 426.33 L335.62 425.99 L336.63 424.99 L336.97 424.31 L337.64 423.64 L338.31 422.97 L338.98 422.30 L339.65 421.63 L340.33 420.96 L341.00 420.28 L341.67 419.61 L342.34 418.94 L343.01 418.27 L343.69 417.60 L344.36 416.92 L345.03 416.25 L345.70 415.58 L346.37 414.91 L347.04 414.24 L347.72 413.90 L348.72 412.89 L349.06 412.22 L349.06 411.21 L350.40 409.53 L351.08 408.86 L351.75 408.52 L352.42 407.52 L353.09 407.18 L354.10 406.17 L354.44 405.50 L354.44 404.49 L355.44 403.49 L356.79 402.14 L357.12 401.47 L357.12 400.46 L358.13 399.45 L359.48 398.11 L359.81 397.44 L359.81 396.43 L360.15 395.76 L360.82 395.42 L361.15 394.75 L361.15 393.74 L361.49 393.07 L362.16 392.73 L362.50 392.06 L362.50 391.06 L362.83 390.38 L363.51 390.05 L363.84 389.38 L363.84 388.37 L364.18 387.70 L364.85 387.36 L365.19 386.69 L365.19 385.68 L365.52 385.01 L366.19 384.67 L366.53 384.00 L366.53 382.99 L366.87 382.32 L367.54 381.98 L367.87 381.31 L367.87 380.30 L368.88 379.30 L369.22 375.94 L370.23 375.27 L370.56 371.91 L371.57 371.23 L371.91 367.87 L372.91 367.20 L373.25 362.50 L374.26 361.83 L374.59 357.12 L375.60 356.45 L375.94 349.06 L376.94 348.39 L376.94 315.13 L375.94 314.46 L375.60 305.72 L374.59 305.05 L374.26 297.66 L373.25 296.99 L372.91 292.28 L371.91 291.61 L371.57 288.25 L370.56 287.58 L370.23 282.88 L369.22 282.20 L368.88 278.85 L367.87 278.17 L367.54 274.81 L366.53 274.14 L366.19 270.78 L365.19 270.11 L364.85 266.75 L363.84 266.08 L363.51 262.72 L362.50 261.71 L362.50 260.70 L362.16 260.03 L361.15 259.36 L360.82 256.00 L359.81 254.99 L359.81 253.98 L359.48 253.31 L358.80 252.98 L358.47 252.30 L358.47 251.30 L358.13 250.62 L357.46 250.29 L357.12 249.62 L357.12 248.61 L356.79 247.94 L356.12 247.60 L355.78 246.93 L355.78 245.92 L355.44 245.25 L354.77 244.91 L354.44 244.24 L354.44 243.23 L354.10 242.56 L353.43 242.23 L353.09 241.55 L353.09 240.55 L352.76 239.87 L352.08 239.54 L351.75 238.87 L351.75 237.86 L351.41 237.19 L350.74 236.85 L350.40 236.18 L350.40 235.17 L350.07 234.50 L349.40 234.16 L349.06 233.49 L349.06 232.48 L348.72 231.81 L348.05 231.48 L347.72 230.80 L347.72 229.80 L347.38 229.12 L346.71 228.79 L346.37 228.12 L346.37 227.11 L346.04 226.44 L345.36 226.10 L345.03 225.43 L345.03 224.42 L344.69 223.75 L344.02 223.41 L343.69 222.74 L343.69 221.73 L343.35 221.06 L342.01 219.72 L341.00 218.71 L341.00 217.70 L340.66 217.03 L339.99 216.69 L339.65 216.02 L339.65 215.01 L338.65 214.01 L338.65 213.00 L339.99 211.65 L340.66 211.32 L341.67 211.32 L342.34 210.98 L343.69 209.64 L344.69 208.63 L345.70 208.63 L346.37 208.29 L347.72 206.95 L348.72 205.94 L349.73 205.94 L350.40 205.61 L351.75 204.26 L352.76 203.25 L353.76 203.25 L354.44 202.92 L354.77 202.25 L355.44 201.91 L356.45 201.91 L357.12 201.57 L358.47 200.23 L359.48 199.22 L360.48 199.22 L361.15 198.89 L362.16 197.88 L363.17 196.54 L364.85 195.19 L365.86 195.19 L366.53 194.86 L367.87 193.51 L368.88 192.50 L369.89 192.50 L370.56 192.17 L371.91 190.82 L372.91 189.82 L373.92 189.82 L374.59 189.48 L375.94 188.14 L376.94 187.13 L377.95 187.13 L378.62 186.79 L379.97 185.45 L380.98 184.44 L381.98 184.44 L382.66 184.10 L384.00 182.76 L385.01 181.75 L386.02 181.75 L386.69 181.42 L388.03 180.07 L389.04 179.07 L390.05 179.07 L390.72 178.73 L392.06 177.39 L393.07 176.38 L394.08 176.38 L394.75 176.04 L396.09 174.70 L397.10 173.69 L398.11 173.69 L398.78 173.35 L400.13 172.01 L401.13 171.00 L402.14 171.00 L402.81 170.67 L403.82 169.66 L404.83 168.31 L406.51 166.97 L407.52 166.97 L408.19 166.64 L409.53 165.29 L410.54 164.28 L411.55 164.28 L412.22 163.95 L413.56 162.60 L414.57 161.60 L415.58 161.60 L416.25 161.26 L417.60 159.92 L418.60 158.91 L419.61 158.91 L420.62 157.90 L421.29 157.56 L421.96 158.24 L422.30 285.23 L423.31 285.90 L423.64 286.57 L424.65 287.58 L425.32 287.92 L426.33 287.92 L427.00 288.25 L427.34 288.92 L428.01 289.26 L429.02 289.26 L430.03 290.27 L431.37 291.61 L432.04 291.95 L433.05 291.95 L433.72 292.28 L434.06 292.96 L434.73 293.29 L435.74 293.29 L436.41 293.63 L436.75 294.30 L437.42 294.64 L438.43 294.64 L439.10 294.97 L439.43 295.64 L440.10 295.98 L441.11 295.98 L442.12 296.99 L443.46 298.33 L444.14 298.67 L445.14 298.67 L445.82 299.00 L446.15 299.67 L446.82 300.01 L447.83 300.01 L448.50 300.35 L448.84 301.02 L449.51 301.35 L450.52 301.35 L451.19 301.69 L451.53 302.36 L452.20 302.70 L453.21 302.70 L454.22 303.71 L455.56 305.05 L456.23 305.39 L457.24 305.39 L457.91 305.72 L458.25 306.39 L458.92 306.73 L459.93 306.73 L460.60 307.07 L460.93 307.74 L461.61 308.07 L462.61 308.07 L463.62 309.08 L464.97 310.43 L465.64 310.76 L466.65 310.76 L467.32 311.10 L467.65 311.77 L468.33 312.10 L469.33 312.10 L470.01 312.44 L470.34 313.11 L471.01 313.45 L472.02 313.45 L472.69 313.78 L473.03 314.46 L473.70 314.79 L474.71 314.79 L475.72 315.80 L477.06 317.14 L477.73 317.48 L478.74 317.48 L479.41 317.82 L479.75 318.49 L480.42 318.82 L481.43 318.82 L482.10 319.16 L482.44 319.83 L483.11 320.17 L484.12 320.17 L485.12 321.18 L486.47 322.52 L487.14 322.86 L488.15 322.86 L488.82 323.19 L489.15 323.86 L489.83 324.20 L490.83 324.20 L491.51 324.54 L491.84 325.21 L492.51 325.54 L493.52 325.54 L495.20 326.89 L495.87 327.90 L498.23 327.90 L497.89 14.11 L495.87 14.45 L494.87 15.45 L493.86 15.45 L493.19 15.79 L491.84 17.13 L490.83 18.14 L489.83 18.14 L489.15 18.48 L487.81 19.82 L486.80 20.83 L485.80 20.83 L485.12 21.17 L483.78 22.51 L482.77 23.52 L481.76 23.52 L481.09 23.85 L479.75 25.20 L478.74 26.20 L477.73 26.20 L477.06 26.54 L475.72 27.88 L474.71 28.89 L473.70 28.89 L473.03 29.23 L471.69 30.57 L470.68 31.58 L469.67 31.58 L469.00 31.92 L467.65 33.26 L466.65 34.27 L465.64 34.27 L464.97 34.60 L463.62 35.95 L462.61 36.96 L461.61 36.96 L460.93 37.29 L459.59 38.64 L458.58 39.64 L457.57 39.64 L456.90 39.98 L455.56 41.32 L454.55 42.33 L453.54 42.33 L452.87 42.67 L451.53 44.01 L450.52 45.02 L449.51 45.02 L448.84 45.35 L447.50 46.70 L446.49 47.71 L445.48 47.71 L444.81 48.04 L443.46 49.39 L442.46 50.39 L441.45 50.39 L440.78 50.73 L439.43 52.07 L438.43 53.08 L437.42 53.08 L436.75 53.42 L435.40 54.76 L434.39 55.77 L433.39 55.77 L432.71 56.10 L431.37 57.45 L430.36 58.46 L429.35 58.46 L428.68 58.79 L427.34 60.14 L426.33 61.14 L425.32 61.14 L424.65 61.48 L423.31 62.82 L422.30 63.83 L421.29 63.83 L420.62 64.17 L419.28 65.51 L418.27 66.52 L417.26 66.52 L416.59 66.86 L415.24 68.20 L414.24 69.21 L413.23 69.21 L412.56 69.54 L411.21 70.89 L410.20 71.90 L409.20 71.90 L408.52 72.23 L407.18 73.57 L406.17 74.58 L405.17 74.58 L404.49 74.92 L403.15 76.26 L402.14 77.27 L401.13 77.27 L400.46 77.61 L399.45 78.61 L398.45 79.96 L396.77 81.30 L395.76 81.30 L395.09 81.64 L393.74 82.98 L392.73 83.99 L391.73 83.99 L391.06 84.33 L389.71 85.67 L388.70 86.68 L387.70 86.68 L387.02 87.01 L385.68 88.36 L384.67 89.36 L383.66 89.36 L382.99 89.70 L381.65 91.04 L380.64 92.05 L379.63 92.05 L378.96 92.39 L377.62 93.73 L376.61 94.74 L375.60 94.74 L374.93 95.08 L373.59 96.42 L372.58 97.43 L371.57 97.43 L370.90 97.76 L369.55 99.11 L368.55 100.12 L367.54 100.12 L366.87 100.45 L365.52 101.80 L364.51 102.80 L363.51 102.80 L362.83 103.14 L361.49 104.48 L360.48 105.49 L359.48 105.49 L358.80 105.83 L357.46 107.17 L356.45 108.18 L355.44 108.18 L354.77 108.51 L353.43 109.86 L352.42 110.87 L351.41 110.87 L350.74 111.20 L349.40 112.55 L348.39 113.55 L347.38 113.55 L346.71 113.89 L345.70 114.90 L344.69 116.24 L343.01 117.59 L342.01 117.59 L341.33 117.92 L339.99 119.27 L338.98 120.27 L337.97 120.27 L337.30 120.61 L335.96 121.95 L334.95 122.96 L333.94 122.96 L333.27 123.30 L331.93 124.64 L330.92 125.65 L329.91 125.65 L329.24 125.98 L327.90 127.33 L326.89 128.34 L325.88 128.34 L325.21 128.67 L324.20 129.68 L323.19 131.02 L321.51 132.37 L320.50 132.37 L319.83 132.70 L318.49 134.05 L317.48 135.06 L316.47 135.06 L315.80 135.39 L314.46 136.73 L313.45 137.74 L312.44 137.74 L311.77 138.08 L310.43 139.42 L309.42 140.43 L308.41 140.43 L307.74 140.77 L306.39 142.11 L305.39 143.12 L304.38 143.12 L303.71 143.45 L302.70 144.46 L301.69 145.81 L300.01 147.15 L299.00 147.15 L298.33 147.49 L296.99 148.83 L295.98 149.84 L294.97 149.84 L294.30 150.17 L292.96 151.52 L291.95 152.52 L290.94 152.52 L290.27 152.86 L288.92 154.20 L287.92 155.21 L286.91 155.21 L286.24 155.55 L284.89 156.89 L283.88 157.90 L282.88 157.90 L282.20 158.24 L280.86 159.58 L279.85 160.59 L278.85 160.59 L278.17 160.92 L276.83 162.27 L275.82 163.28 L274.81 163.28 L274.14 163.61 L273.13 164.62 L272.80 165.29 L272.13 165.96 L271.45 166.64 L270.45 167.31 L270.45 169.66 L271.45 170.33 L272.80 172.01 L272.80 173.02 L273.13 173.69 L273.81 174.03 L274.14 174.70 L274.14 175.71 L274.48 176.38 L275.15 176.71 L275.49 177.39 L275.49 178.39 L275.82 179.07 L276.49 179.40 L276.83 180.07 L276.83 181.08 L277.17 181.75 L278.51 183.10 L279.52 184.10 L279.52 185.11 L279.85 185.78 L280.52 186.12 L280.86 186.79 L280.86 187.80 L281.20 188.47 L281.87 188.81 L282.20 189.48 L282.20 190.49 L282.54 191.16 L283.21 191.50 L283.55 192.17 L283.55 193.18 L283.88 193.85 L284.56 194.18 L284.89 194.86 L284.89 195.86 L285.23 196.54 L286.57 197.88 L287.58 198.89 L287.58 199.90 L287.92 200.57 L288.59 200.90 L288.92 201.57 L288.92 202.58 L289.26 203.25 L289.93 203.59 L290.27 204.26 L290.27 205.27 L290.60 205.94 L291.28 206.28 L291.61 206.95 L291.61 207.96 L291.95 208.63 L293.29 209.97 L294.30 210.98 L294.30 211.99 L294.64 212.66 L295.31 213.00 L295.64 213.67 L295.64 214.68 L295.98 215.35 L296.65 215.69 L296.99 216.36 L296.99 217.36 L297.32 218.04 L297.99 218.37 L298.33 219.04 L298.33 220.05 L298.67 220.72 L299.34 221.06 L299.67 221.73 L299.67 222.74 L300.01 223.41 L301.35 224.76 L302.36 225.76 L302.36 226.77 L302.70 227.44 L303.37 227.78 L303.71 228.45 L303.71 229.46 L304.04 230.13 L304.71 230.47 L305.05 231.14 L305.05 232.15 L305.39 232.82 L306.06 233.15 L306.39 233.83 L306.39 234.83 L306.73 235.51 L307.40 235.84 L307.74 236.51 L307.74 237.52 L308.07 238.19 L309.42 239.54 L310.43 240.55 L310.43 241.55 L310.76 242.23 L311.43 242.56 L311.77 243.23 L311.77 244.24 L312.10 244.91 L312.78 245.25 L313.11 245.92 L313.11 246.93 L313.45 247.60 L314.12 247.94 L314.46 248.61 L314.46 249.62 L314.79 250.29 L315.46 250.62 L315.80 251.30 L315.80 252.30 L316.14 252.98 L316.81 253.31 L317.14 253.98 L317.14 254.99 L317.48 255.66 L318.82 257.01 L319.83 258.02 L319.83 259.02 L320.17 259.70 L320.84 260.03 L321.18 260.70 L321.18 261.71 L321.51 262.38 L322.18 262.72 L322.52 263.39 L322.52 264.40 L322.86 265.07 L323.53 265.41 L323.86 266.08 L323.86 267.09 L324.20 267.76 L324.87 268.09 L325.21 268.77 L325.21 269.77 L325.54 270.45 L326.55 271.12 L326.89 274.48 L327.90 275.49 L327.90 276.49 L328.23 277.17 L328.90 277.50 L329.24 278.17 L329.24 279.18 L329.57 279.85 L330.25 280.19 L330.58 280.86 L330.58 281.87 L330.92 282.54 L331.93 283.21 L332.26 286.57 L333.27 287.58 L333.27 288.59 L333.61 289.26 L334.61 289.93 L334.95 293.29 L335.96 293.96 L336.29 297.32 L337.30 297.99 L337.64 301.35 L338.65 302.03 L338.98 306.73 L339.99 307.40 L340.33 312.10 L341.33 312.78 L341.67 318.82 L342.68 319.50 L342.68 345.36 L341.67 346.04 L341.33 352.08 L340.33 352.76 L339.99 357.46 L338.98 358.13 L338.65 362.83 L337.64 363.51 L337.30 364.18 L337.30 365.19 L336.29 366.19 L335.96 369.55 L334.95 370.23 L334.61 370.90 L334.61 371.91 L334.28 372.58 L333.61 372.91 L333.27 373.59 L333.27 374.59 L332.93 375.27 L332.26 375.60 L331.93 376.27 L331.93 377.28 L330.92 378.29 L329.57 379.63 L329.24 380.30 L329.24 381.31 L328.23 382.32 L326.89 383.66 L326.55 384.34 L326.55 385.34 L325.54 386.35 L324.20 387.70 L323.86 388.37 L323.86 389.38 L322.52 391.06 L321.85 391.73 L321.18 392.40 L320.50 393.07 L319.83 393.74 L319.16 394.41 L318.49 395.09 L317.82 395.76 L317.14 396.43 L316.47 397.10 L315.80 397.77 L315.13 398.45 L314.46 399.12 L313.78 399.79 L313.11 400.46 L312.44 401.13 L310.76 402.48 L309.75 402.48 L309.08 402.81 L308.07 403.82 L307.07 405.17 L305.39 406.51 L304.38 406.51 L303.71 406.85 L302.36 408.19 L301.35 409.20 L300.35 409.20 L299.67 409.53 L299.34 410.20 L298.67 410.54 L297.66 410.54 L296.99 410.88 L296.65 411.55 L295.98 411.88 L294.97 411.88 L294.30 412.22 L293.96 412.89 L293.29 413.23 L292.28 413.23 L291.61 413.56 L291.28 414.24 L290.60 414.57 L289.60 414.57 L288.92 414.91 L288.25 415.92 L284.89 416.25 L284.22 417.26 L280.86 417.60 L280.19 418.60 L276.83 418.94 L276.16 419.95 L268.77 420.28 L268.09 421.29 L242.23 421.29 L241.55 420.28 L235.51 419.95 L234.83 418.94 L230.13 418.60 L229.46 417.60 L226.10 417.26 L225.43 416.25 L224.76 415.92 L223.75 415.92 L223.08 415.58 L222.74 414.91 L222.07 414.57 L221.06 414.57 L220.39 414.24 L220.05 413.56 L219.38 413.23 L218.37 413.23 L217.70 412.89 L217.36 412.22 L216.69 411.88 L215.69 411.88 L215.01 411.55 L214.68 410.88 L214.01 410.54 L213.00 410.54 L212.33 410.20 L211.99 409.53 L211.32 409.20 L210.31 409.20 L209.30 408.19 L207.96 406.85 L207.29 406.51 L206.28 406.51 L205.27 405.50 L203.93 404.16 L203.25 403.82 L202.25 403.82 L200.57 402.48 L199.90 401.81 L199.22 401.13 L198.55 400.46 L197.88 399.79 L197.21 399.12 L196.54 398.45 L195.86 397.77 L195.19 397.10 L194.52 396.43 L193.85 395.76 L193.18 395.09 L192.50 394.41 L191.83 393.74 L191.16 393.07 L190.49 392.40 L189.82 391.73 L189.14 391.06 L188.47 390.38 L187.80 389.71 L186.46 388.03 L186.46 387.02 L186.12 386.35 L185.11 385.34 L183.77 384.34 L182.43 382.66 L182.43 381.65 L182.09 380.98 L181.42 380.64 L181.08 379.97 L181.08 378.96 L180.75 378.29 L179.40 376.94 L178.39 375.94 L178.39 374.93 L178.06 374.26 L177.39 373.92 L177.05 373.25 L177.05 372.24 L176.71 371.57 L175.71 370.90 L175.37 367.54 L174.36 366.53 L174.36 365.52 L174.03 364.85 L173.02 364.18 L172.68 360.82 L171.67 360.15 L171.34 355.44 L170.33 354.77 L169.99 348.72 L168.99 348.05 L168.99 316.81 L169.99 316.14 L170.33 308.75 L171.34 308.07 L171.67 303.37 L172.68 302.70 L173.02 299.34 L174.03 298.67 L174.36 295.31 L175.37 294.64 L175.71 291.28 L176.71 290.60 L177.05 289.93 L177.05 288.92 L178.06 287.92 L178.39 284.56 L179.40 283.88 L179.74 283.21 L179.74 282.20 L180.07 281.53 L180.75 281.20 L181.08 280.52 L181.08 279.52 L181.42 278.85 L182.09 278.51 L182.43 277.84 L182.43 276.83 L182.76 276.16 L183.43 275.82 L183.77 275.15 L183.77 274.14 L184.78 273.13 L185.11 269.77 L186.12 269.10 L186.46 268.43 L186.46 267.42 L186.79 266.75 L187.46 266.41 L187.80 265.74 L187.80 264.73 L188.14 264.06 L188.81 263.73 L189.14 263.06 L189.14 262.05 L189.48 261.38 L190.15 261.04 L190.49 260.37 L190.49 259.36 L191.50 258.35 L192.84 257.01 L193.18 256.34 L193.18 255.33 L193.51 254.66 L194.18 254.32 L194.52 253.65 L194.52 252.64 L194.86 251.97 L195.53 251.63 L195.86 250.96 L195.86 249.95 L196.20 249.28 L196.87 248.94 L197.21 248.27 L197.21 247.27 L197.54 246.59 L198.22 246.26 L198.55 245.59 L198.55 244.58 L198.89 243.91 L199.56 243.57 L199.90 242.90 L199.90 241.89 L200.23 241.22 L200.90 240.88 L201.24 240.21 L201.24 239.20 L202.25 238.19 L203.59 236.85 L203.93 236.18 L203.93 235.17 L204.26 234.50 L204.93 234.16 L205.27 233.49 L205.27 232.48 L205.61 231.81 L206.28 231.48 L206.61 230.80 L206.61 229.80 L207.62 228.79 L208.97 227.44 L209.30 226.77 L209.30 225.76 L209.64 225.09 L210.31 224.76 L210.65 224.08 L210.65 223.08 L210.98 222.40 L211.65 222.07 L211.99 221.40 L211.99 220.39 L212.33 219.72 L213.00 219.38 L213.33 218.71 L213.33 217.70 L213.67 217.03 L214.34 216.69 L214.68 216.02 L214.68 215.01 L215.69 214.01 L217.03 212.66 L217.36 211.99 L217.36 210.98 L217.70 210.31 L218.37 209.97 L218.71 209.30 L218.71 208.29 L219.04 207.62 L219.72 207.29 L220.05 206.61 L220.05 205.61 L220.39 204.93 L221.06 204.60 L221.40 203.93 L221.40 202.92 L221.73 202.25 L222.40 201.91 L222.74 201.24 L222.74 200.23 L223.08 199.56 L223.75 199.22 L224.08 198.55 L224.08 197.54 L225.09 196.54 L226.44 195.19 L226.77 194.52 L226.77 193.51 L227.11 192.84 L227.78 192.50 L228.12 191.83 L228.12 190.82 L228.45 190.15 L229.12 189.82 L229.46 189.14 L229.46 188.14 L229.80 187.46 L230.47 187.13 L230.80 186.46 L230.80 185.45 L231.14 184.78 L231.81 184.44 L232.15 183.77 L232.15 182.76 L233.15 181.75 L234.50 180.41 L234.83 179.74 L234.83 178.73 L235.17 178.06 L235.84 177.72 L236.18 177.05 L236.18 176.04 L236.51 175.37 L237.19 175.03 L237.52 174.36 L237.52 173.35 L237.86 172.68 L238.53 172.35 L238.87 171.67 L238.87 170.67 L239.87 169.66 L239.87 165.96 L238.87 164.96 L238.19 164.62 L237.19 164.62 L236.18 163.61 L234.83 162.27 L234.16 161.93 L233.15 161.93 L232.15 160.92 L230.80 159.58 L230.13 159.24 L229.12 159.24 L228.12 158.24 L226.77 156.89 L226.10 156.56 L225.09 156.56 L224.08 155.55 L222.74 154.20 L222.07 153.87 L221.06 153.87 L220.05 152.86 L218.71 151.52 L218.04 151.18 L217.03 151.18 L216.02 150.17 L214.68 148.83 L214.01 148.49 L213.00 148.49 L211.99 147.49 L210.65 146.14 L209.97 145.81 L208.97 145.81 L207.96 144.80 L206.61 143.45 L205.94 143.12 L204.93 143.12 L203.93 142.11 L202.58 140.77 L201.91 140.43 L200.90 140.43 L199.90 139.42 L198.55 138.08 L197.88 137.74 L196.87 137.74 L195.19 136.40 L194.18 135.06 L193.18 134.05 L192.50 133.71 L191.50 133.71 L190.49 132.70 L189.14 131.36 L188.47 131.02 L187.46 131.02 L186.46 130.02 L185.11 128.67 L184.44 128.34 L183.43 128.34 L182.43 127.33 L181.08 125.98 L180.41 125.65 L179.40 125.65 L177.72 124.30 L176.71 122.96 L175.71 121.95 L175.03 121.62 L174.03 121.62 L173.02 120.61 L171.67 119.27 L171.00 118.93 L169.99 118.93 L168.99 117.92 L167.64 116.58 L166.97 116.24 L165.96 116.24 L164.96 115.23 L163.61 113.89 L162.94 113.55 L161.93 113.55 L160.92 112.55 L159.58 111.20 L158.91 110.87 L157.90 110.87 L156.89 109.86 L155.55 108.51 L154.88 108.18 L153.87 108.18 L152.86 107.17 L151.52 105.83 L150.85 105.49 L149.84 105.49 L148.16 104.15 L147.15 102.80 L146.14 101.80 L145.47 101.46 L144.46 101.46 L143.45 100.45 L142.11 99.11 L141.44 98.77 L140.43 98.77 L139.42 97.76 L138.08 96.42 L137.41 96.08 L136.40 96.08 L135.39 95.08 L134.05 93.73 L133.38 93.40 L132.37 93.40 L131.36 92.39 L130.02 91.04 L129.34 90.71 L128.34 90.71 L127.33 89.70 L125.98 88.36 L125.31 88.02 L124.30 88.02 L123.30 87.01 L121.95 85.67 L121.28 85.33 L120.27 85.33 L119.27 84.33 L117.92 82.98 L117.25 82.65 L116.24 82.65 L114.56 81.30 L113.55 79.96 L112.55 78.95 L111.87 78.61 L110.87 78.61 L109.86 77.61 L108.51 76.26 L107.84 75.93 L106.83 75.93 L105.83 74.92 L104.48 73.57 L103.81 73.24 L102.80 73.24 L101.80 72.23 L100.45 70.89 L99.78 70.55 L98.77 70.55 L97.76 69.54 L96.42 68.20 L95.75 67.86 L94.74 67.86 L93.73 66.86 L92.39 65.51 L91.72 65.18 L90.71 65.18 L89.70 64.17 L88.36 62.82 L87.69 62.49 L86.68 62.49 L86.01 62.15 L85.67 61.48 L85.00 61.14 L83.99 61.14 L82.31 59.80 L81.30 58.46 L80.29 57.45 L79.62 57.11 L78.61 57.11 L77.61 56.10 L76.26 54.76 L75.59 54.43 L74.58 54.43 L73.57 53.42 L72.23 52.07 L71.56 51.74 L70.55 51.74 L69.54 50.73 L68.20 49.39 L67.53 49.05 L66.52 49.05 L65.51 48.04 L64.17 46.70 L63.50 46.36 L62.49 46.36 L61.82 46.03 L61.48 45.35 L60.81 45.02 L59.80 45.02 L58.79 44.01 L57.45 42.67 L56.78 42.33 L55.77 42.33 L54.76 41.32 L53.42 39.98 L52.75 39.64 L51.74 39.64 L50.73 38.64 L49.39 37.29 L48.71 36.96 L47.71 36.96 L46.70 35.95 L45.35 34.60 L44.68 34.27 L43.67 34.27 L41.99 32.92 L40.99 31.58 L39.98 30.57 L39.31 30.24 L38.30 30.24 L37.63 29.90 L37.29 29.23 L36.62 28.89 L35.61 28.89 L34.60 27.88 L33.26 26.54 L32.59 26.20 L31.58 26.20 L30.57 25.20 L29.23 23.85 L28.56 23.52 L27.55 23.52 L26.54 22.51 L25.20 21.17 L24.52 20.83 L23.52 20.83 L22.51 19.82 L21.17 18.48 L20.49 18.14 L19.49 18.14 L17.81 16.80 L17.13 16.13 L16.46 15.45 L15.79 14.45 Z M252.64 281.87 L251.97 282.88 L243.23 283.21 L242.56 284.22 L237.86 284.56 L236.85 285.56 L235.84 285.56 L235.17 285.90 L234.50 286.91 L231.14 287.24 L230.13 288.25 L229.12 288.25 L228.45 288.59 L227.11 289.93 L226.10 290.94 L225.09 290.94 L224.42 291.28 L223.41 292.28 L222.40 293.63 L220.72 294.97 L219.72 294.97 L219.04 295.31 L218.04 296.31 L217.70 296.99 L217.03 297.66 L216.36 298.33 L215.69 299.00 L215.01 299.67 L214.34 300.35 L213.67 300.68 L212.66 301.69 L212.33 302.36 L212.33 303.37 L211.32 304.38 L209.97 305.72 L209.64 306.39 L209.64 307.40 L208.63 308.41 L207.29 309.75 L206.95 310.43 L206.95 311.43 L206.61 312.10 L205.94 312.44 L205.61 313.11 L205.61 314.12 L204.60 315.13 L204.26 318.49 L203.25 319.16 L202.92 322.52 L201.91 323.19 L201.57 329.24 L200.57 329.91 L200.57 344.36 L201.57 345.03 L201.91 351.08 L202.92 351.75 L203.25 355.11 L204.26 356.12 L204.26 357.12 L204.60 357.80 L205.27 358.13 L205.61 358.80 L205.61 359.81 L205.94 360.48 L206.61 360.82 L206.95 361.49 L206.95 362.50 L207.29 363.17 L207.96 363.51 L208.29 364.18 L208.29 365.19 L208.63 365.86 L209.30 366.19 L209.64 366.87 L209.64 367.87 L209.97 368.55 L210.98 369.55 L211.65 369.89 L212.33 370.56 L213.00 371.23 L213.67 371.91 L214.34 372.58 L215.01 373.25 L215.69 373.92 L216.36 374.59 L217.03 375.27 L217.70 375.94 L218.37 376.61 L219.04 377.28 L219.72 377.95 L220.39 378.62 L220.72 379.30 L221.73 380.30 L222.40 380.64 L223.41 380.64 L224.42 381.65 L225.76 382.99 L226.44 383.33 L227.44 383.33 L228.12 383.66 L228.45 384.34 L229.12 384.67 L230.13 384.67 L230.80 385.01 L231.14 385.68 L231.81 386.02 L232.82 386.02 L233.83 387.02 L237.19 387.36 L237.86 388.37 L241.22 388.70 L241.89 389.71 L267.09 389.71 L267.76 388.70 L272.46 388.37 L273.13 387.36 L276.49 387.02 L277.50 386.02 L278.51 386.02 L279.18 385.68 L279.52 385.01 L280.19 384.67 L281.20 384.67 L281.87 384.34 L282.20 383.66 L282.88 383.33 L283.88 383.33 L284.56 382.99 L285.90 381.65 L286.91 380.64 L287.92 380.64 L288.59 380.30 L289.60 379.30 L289.93 378.62 L290.94 377.95 L291.28 377.28 L291.95 376.61 L293.63 375.27 L294.64 375.27 L295.31 374.93 L296.31 373.92 L296.65 373.25 L296.65 372.24 L297.99 370.56 L298.67 369.89 L299.34 369.55 L300.01 368.55 L300.68 368.21 L301.69 367.20 L302.03 366.53 L302.03 365.52 L302.36 364.85 L303.03 364.51 L303.37 363.84 L303.37 362.83 L304.71 361.15 L305.72 360.48 L306.06 357.12 L307.07 356.45 L307.40 355.78 L307.40 354.77 L308.41 353.76 L308.75 349.06 L309.75 348.39 L310.09 342.34 L311.10 341.67 L311.10 332.60 L310.09 331.93 L309.75 324.54 L308.75 323.86 L308.41 319.16 L307.40 318.15 L307.40 317.14 L307.07 316.47 L306.39 316.14 L306.06 315.46 L306.06 314.46 L305.72 313.78 L305.05 313.45 L304.71 312.78 L304.71 311.77 L304.38 311.10 L303.71 310.76 L303.37 310.09 L303.37 309.08 L303.03 308.41 L302.36 308.07 L302.03 307.40 L302.03 306.39 L301.69 305.72 L300.68 304.71 L299.34 303.71 L297.99 302.03 L297.99 301.02 L297.66 300.35 L296.65 299.34 L295.98 299.00 L295.31 298.33 L294.97 297.66 L293.96 296.65 L293.29 296.31 L292.28 296.31 L290.60 294.97 L289.60 293.63 L288.59 292.62 L287.92 292.28 L286.91 292.28 L285.90 291.28 L284.56 289.93 L283.88 289.60 L282.88 289.60 L282.20 289.26 L281.87 288.59 L281.20 288.25 L280.19 288.25 L279.52 287.92 L279.18 287.24 L278.51 286.91 L277.50 286.91 L276.83 286.57 L276.49 285.90 L275.82 285.56 L274.81 285.56 L273.81 284.56 L269.10 284.22 L268.43 283.21 L259.70 282.88 L259.02 281.87 Z M460.93 345.03 L460.93 348.05 L459.93 348.72 L459.59 361.49 L458.58 362.16 L458.25 369.55 L457.24 370.23 L456.90 376.27 L455.90 376.94 L455.56 381.65 L454.55 382.32 L454.22 387.02 L453.21 387.70 L452.87 392.40 L451.86 393.07 L451.53 396.43 L450.52 397.10 L450.18 400.46 L449.18 401.13 L448.84 404.49 L447.83 405.17 L447.50 405.84 L447.50 406.85 L446.49 407.85 L446.15 411.21 L445.14 411.88 L444.81 412.56 L444.81 413.56 L444.47 414.24 L443.80 414.57 L443.46 415.24 L443.46 416.25 L443.13 416.92 L442.46 417.26 L442.12 417.93 L442.12 418.94 L441.78 419.61 L441.11 419.95 L440.78 420.62 L440.78 421.63 L440.44 422.30 L439.77 422.64 L439.43 423.31 L439.43 424.31 L439.10 424.99 L438.43 425.32 L438.09 425.99 L438.09 427.00 L437.75 427.67 L437.08 428.01 L436.75 428.68 L436.75 429.69 L436.41 430.36 L435.74 430.70 L435.40 431.37 L435.40 432.38 L434.39 433.39 L433.05 434.73 L432.71 435.40 L432.71 436.41 L432.38 437.08 L431.71 437.42 L431.37 438.09 L431.37 439.10 L430.36 440.10 L429.02 441.45 L428.68 442.12 L428.68 443.13 L427.34 444.81 L425.99 445.82 L424.99 446.82 L424.65 447.50 L424.65 448.50 L423.31 450.18 L421.96 451.19 L420.96 452.20 L420.62 452.87 L420.62 453.88 L419.28 455.56 L418.60 456.23 L417.93 456.57 L417.26 457.57 L416.59 457.91 L415.58 458.92 L415.24 459.59 L415.24 460.60 L413.90 462.28 L413.23 462.95 L412.56 463.62 L411.88 464.29 L411.21 464.97 L410.54 465.64 L409.87 466.31 L409.20 466.98 L408.52 467.65 L407.85 468.33 L407.18 469.00 L406.51 469.67 L405.84 470.34 L405.17 471.01 L404.49 471.69 L403.82 472.36 L403.15 473.03 L402.48 473.70 L401.81 474.37 L401.13 475.04 L400.46 475.72 L399.79 476.39 L398.11 477.73 L397.10 477.73 L396.43 478.07 L395.42 479.08 L395.09 479.75 L394.41 480.42 L393.74 481.09 L393.07 481.76 L392.40 482.44 L391.73 483.11 L390.05 484.45 L388.37 484.79 L388.70 486.80 L389.71 487.81 L389.71 488.82 L390.05 489.49 L391.39 490.83 L392.40 491.84 L392.40 492.85 L392.73 493.52 L394.08 494.87 L395.09 495.87 L395.09 496.88 L395.42 497.55 L396.77 498.90 L397.77 499.91 L397.77 500.91 L398.11 501.59 L399.45 502.93 L400.46 503.94 L400.46 504.94 L400.80 505.62 L402.14 506.96 L403.15 507.97 L403.49 509.65 L405.50 509.31 L406.17 508.30 L406.85 507.63 L407.52 506.96 L409.20 505.62 L410.20 505.62 L410.88 505.28 L411.88 504.27 L412.22 503.60 L412.89 502.93 L413.56 502.59 L414.24 501.59 L414.91 500.91 L415.58 500.24 L417.26 498.90 L418.27 498.90 L418.94 498.56 L419.95 497.55 L420.28 496.88 L420.96 496.21 L421.63 495.54 L422.30 494.87 L422.97 494.19 L423.64 493.52 L424.31 492.85 L424.99 492.18 L425.66 491.51 L426.33 490.83 L427.00 490.16 L427.67 489.49 L428.35 488.82 L429.02 488.15 L429.69 487.48 L430.36 486.80 L431.03 486.13 L431.71 485.46 L432.38 484.79 L433.05 484.12 L433.72 483.44 L434.39 482.77 L435.07 482.10 L435.74 481.43 L436.41 480.76 L437.08 480.08 L437.75 479.75 L438.76 478.74 L439.10 478.07 L439.10 477.06 L440.44 475.38 L441.11 474.71 L441.78 474.04 L442.79 473.36 L443.13 472.69 L443.80 472.02 L444.47 471.69 L445.48 470.68 L445.82 470.01 L445.82 469.00 L446.82 467.99 L448.17 466.65 L448.50 465.97 L448.50 464.97 L449.85 463.29 L451.19 462.28 L452.20 461.27 L452.54 460.60 L452.54 459.59 L453.54 458.58 L454.89 457.24 L455.22 456.57 L455.22 455.56 L456.23 454.55 L457.57 453.21 L457.91 452.54 L457.91 451.53 L458.25 450.86 L458.92 450.52 L459.25 449.85 L459.25 448.84 L459.59 448.17 L460.26 447.83 L460.60 447.16 L460.60 446.15 L461.61 445.14 L462.95 443.80 L463.29 443.13 L463.29 442.12 L463.62 441.45 L464.29 441.11 L464.63 440.44 L464.63 439.43 L464.97 438.76 L465.64 438.43 L465.97 437.75 L465.97 436.75 L466.31 436.07 L466.98 435.74 L467.32 435.07 L467.32 434.06 L468.33 433.05 L468.66 429.69 L469.67 429.02 L470.01 428.35 L470.01 427.34 L470.34 426.67 L471.01 426.33 L471.35 425.66 L471.35 424.65 L472.36 423.64 L472.69 420.28 L473.70 419.61 L474.04 418.94 L474.04 417.93 L475.04 416.92 L475.38 413.56 L476.39 412.89 L476.72 409.53 L477.73 408.86 L478.07 405.50 L479.08 404.83 L479.41 401.47 L480.42 400.80 L480.76 397.44 L481.76 396.77 L482.10 392.06 L483.11 391.39 L483.44 385.34 L484.45 384.67 L484.79 378.62 L485.80 377.95 L486.13 370.56 L487.14 369.89 L487.14 358.13 L486.13 357.12 L485.46 356.79 L484.45 356.79 L483.78 356.45 L483.44 355.78 L482.77 355.44 L481.76 355.44 L481.09 355.11 L480.76 354.44 L480.08 354.10 L479.08 354.10 L478.07 353.09 L476.72 351.75 L476.05 351.41 L475.04 351.41 L474.37 351.08 L474.04 350.40 L473.36 350.07 L472.36 350.07 L471.69 349.73 L471.35 349.06 L470.68 348.72 L469.67 348.72 L469.00 348.39 L468.66 347.72 L467.99 347.38 L466.98 347.38 L466.31 347.04 L465.97 346.37 L465.30 346.04 L464.29 346.04 L463.29 345.03 Z M48.38 345.03 L47.37 346.04 L46.36 346.04 L45.69 346.37 L45.35 347.04 L44.68 347.38 L43.67 347.38 L43.00 347.72 L42.67 348.39 L41.99 348.72 L40.99 348.72 L40.31 349.06 L39.98 349.73 L39.31 350.07 L38.30 350.07 L37.63 350.40 L37.29 351.08 L36.62 351.41 L35.61 351.41 L34.94 351.75 L34.60 352.42 L33.93 352.76 L32.92 352.76 L32.25 353.09 L31.92 353.76 L31.24 354.10 L30.24 354.10 L29.56 354.44 L28.22 355.78 L27.21 356.79 L26.20 356.79 L25.53 357.12 L25.20 357.80 L24.52 358.13 L22.85 358.47 L23.18 364.51 L24.19 365.19 L24.52 373.92 L25.53 374.59 L25.87 380.64 L26.88 381.31 L27.21 387.36 L28.22 388.03 L28.56 392.73 L29.56 393.41 L29.90 398.11 L30.91 398.78 L31.24 402.14 L32.25 402.81 L32.59 407.52 L33.60 408.52 L33.60 409.53 L33.93 410.20 L34.94 410.88 L35.28 414.24 L36.28 414.91 L36.62 418.27 L37.63 419.28 L37.63 420.28 L37.96 420.96 L38.97 421.63 L39.31 424.99 L40.31 425.99 L40.31 427.00 L40.65 427.67 L41.32 428.01 L41.66 428.68 L41.66 429.69 L41.99 430.36 L42.67 430.70 L43.00 431.37 L43.00 432.38 L43.34 433.05 L44.01 433.39 L44.35 434.06 L44.35 435.07 L44.68 435.74 L45.35 436.07 L45.69 436.75 L45.69 437.75 L46.03 438.43 L46.70 438.76 L47.03 439.43 L47.03 440.44 L47.37 441.11 L48.04 441.45 L48.38 442.12 L48.38 443.13 L48.71 443.80 L49.39 444.14 L49.72 444.81 L49.72 445.82 L50.06 446.49 L50.73 446.82 L51.07 447.50 L51.07 448.50 L51.40 449.18 L52.75 450.52 L53.75 451.53 L53.75 452.54 L54.09 453.21 L55.43 454.55 L56.44 455.56 L56.44 456.57 L56.78 457.24 L58.12 458.58 L59.13 459.59 L59.13 460.60 L59.46 461.27 L60.81 462.61 L61.82 463.62 L61.82 464.63 L62.15 465.30 L63.16 466.31 L64.50 467.32 L65.85 469.00 L65.85 470.01 L66.18 470.68 L67.19 471.69 L67.86 472.02 L68.54 473.03 L69.21 473.36 L69.88 474.04 L71.22 475.72 L71.22 476.72 L71.56 477.40 L72.57 478.40 L73.24 478.74 L73.91 479.41 L74.58 480.08 L75.25 480.76 L75.93 481.43 L76.60 482.10 L77.27 482.77 L77.94 483.44 L78.61 484.12 L79.29 484.79 L79.96 485.46 L80.63 486.13 L81.30 486.80 L81.97 487.48 L82.65 488.15 L83.32 488.82 L83.99 489.49 L84.66 490.16 L85.33 490.83 L86.01 491.51 L86.68 492.18 L87.35 492.85 L88.02 493.52 L88.69 494.19 L89.36 494.87 L90.04 495.54 L90.71 496.21 L91.38 496.88 L91.72 497.55 L92.72 498.56 L93.40 498.90 L94.40 498.90 L96.08 500.24 L96.76 500.91 L97.43 501.59 L98.10 502.59 L98.77 502.93 L99.44 503.60 L99.78 504.27 L100.79 505.28 L101.46 505.62 L102.47 505.62 L104.15 506.96 L104.82 507.97 L108.51 507.97 L109.19 506.96 L109.86 506.62 L110.87 505.62 L111.20 504.94 L111.20 503.94 L111.54 503.27 L112.21 502.93 L112.55 502.26 L112.55 501.25 L113.89 499.57 L115.23 498.56 L116.24 497.55 L116.58 496.88 L116.58 495.87 L117.59 494.87 L118.93 493.52 L119.27 492.85 L119.27 491.84 L119.60 491.17 L120.27 490.83 L120.61 490.16 L120.61 489.15 L121.95 487.48 L122.96 486.80 L122.96 484.45 L121.62 484.45 L119.94 483.11 L119.27 482.44 L118.59 481.76 L117.92 481.09 L117.25 480.42 L116.58 479.75 L115.91 479.08 L115.23 478.40 L114.90 477.73 L113.89 476.72 L113.22 476.39 L112.21 476.39 L110.53 475.04 L109.86 474.37 L109.19 473.70 L108.51 473.03 L107.84 472.36 L107.17 471.69 L106.50 471.01 L105.83 470.34 L105.15 469.67 L104.48 469.00 L103.81 468.33 L103.14 467.65 L102.47 466.98 L101.80 466.31 L101.12 465.64 L100.45 464.97 L99.78 464.29 L99.11 463.62 L98.44 462.95 L97.76 462.28 L97.09 461.61 L96.42 460.93 L95.75 460.26 L95.08 459.59 L93.73 457.91 L93.73 456.90 L93.40 456.23 L92.39 455.22 L91.72 454.89 L91.04 453.88 L90.37 453.54 L89.70 452.87 L88.36 451.19 L88.36 450.18 L88.02 449.51 L87.01 448.50 L85.67 447.50 L84.33 445.82 L84.33 444.81 L83.99 444.14 L82.65 442.79 L81.64 441.78 L81.64 440.78 L81.30 440.10 L79.96 438.76 L78.95 437.75 L78.95 436.75 L78.61 436.07 L77.27 434.73 L76.26 433.72 L76.26 432.71 L75.93 432.04 L75.25 431.71 L74.92 431.03 L74.92 430.03 L74.58 429.35 L73.91 429.02 L73.57 428.35 L73.57 427.34 L73.24 426.67 L72.57 426.33 L72.23 425.66 L72.23 424.65 L71.90 423.98 L70.55 422.64 L69.54 421.63 L69.54 420.62 L69.21 419.95 L68.20 419.28 L67.86 415.92 L66.86 414.91 L66.86 413.90 L66.52 413.23 L65.85 412.89 L65.51 412.22 L65.51 411.21 L65.18 410.54 L64.17 409.87 L63.83 406.51 L62.82 405.50 L62.82 404.49 L62.49 403.82 L61.48 403.15 L61.14 399.79 L60.14 399.12 L59.80 395.76 L58.79 395.09 L58.46 390.38 L57.45 389.71 L57.11 386.35 L56.10 385.68 L55.77 380.98 L54.76 380.30 L54.43 374.26 L53.42 373.59 L53.08 366.19 L52.07 365.52 L51.74 356.79 L50.73 356.12 L50.39 344.69 Z M405.84 314.12 L405.84 349.40 L404.83 350.07 L404.49 358.80 L403.49 359.48 L403.15 364.18 L402.14 364.85 L401.81 369.55 L400.80 370.23 L400.46 374.93 L399.45 375.60 L399.12 378.96 L398.11 379.63 L397.77 382.99 L396.77 383.66 L396.43 387.02 L395.42 387.70 L395.09 388.37 L395.09 389.38 L394.08 390.38 L393.74 393.74 L392.73 394.41 L392.40 395.09 L392.40 396.09 L392.06 396.77 L391.39 397.10 L391.06 397.77 L391.06 398.78 L390.05 399.79 L388.70 401.13 L388.37 401.81 L388.37 402.81 L388.03 403.49 L387.36 403.82 L387.02 404.49 L387.02 405.50 L386.69 406.17 L386.02 406.51 L385.68 407.18 L385.68 408.19 L384.67 409.20 L383.33 410.54 L382.99 411.21 L382.99 412.22 L381.98 413.23 L380.64 414.57 L380.30 415.24 L380.30 416.25 L379.30 417.26 L377.95 418.60 L377.62 419.28 L377.62 420.28 L376.27 421.96 L375.60 422.64 L374.93 422.97 L374.26 423.98 L373.59 424.31 L372.58 425.32 L372.24 425.99 L372.24 427.00 L370.90 428.68 L370.23 429.35 L369.55 430.03 L368.88 430.70 L368.21 431.37 L367.54 432.04 L366.87 432.71 L366.19 433.39 L365.52 434.06 L364.85 434.73 L364.18 435.40 L363.51 436.07 L362.83 436.75 L362.16 437.42 L361.49 438.09 L360.82 438.76 L359.14 440.10 L357.46 440.44 L357.80 443.80 L358.80 444.47 L360.15 446.15 L360.15 447.16 L360.48 447.83 L361.83 449.18 L362.83 450.18 L362.83 451.19 L363.17 451.86 L364.18 452.87 L365.52 453.88 L366.87 455.56 L366.87 456.57 L367.20 457.24 L368.21 458.25 L369.55 459.25 L370.90 460.93 L370.90 461.94 L371.23 462.61 L372.24 463.62 L374.59 463.62 L375.60 462.61 L376.61 462.61 L377.28 462.28 L378.29 461.27 L378.62 460.60 L379.30 459.93 L379.97 459.25 L380.64 458.58 L381.31 457.91 L381.98 457.24 L382.66 456.57 L383.33 455.90 L384.00 455.22 L384.67 454.55 L385.34 453.88 L386.02 453.21 L386.69 452.54 L387.36 451.86 L388.03 451.19 L388.70 450.52 L389.38 449.85 L390.05 449.18 L390.72 448.50 L391.39 447.83 L392.06 447.16 L392.73 446.49 L393.41 445.82 L394.08 445.14 L394.75 444.47 L395.42 443.80 L396.09 443.46 L397.10 442.46 L397.44 441.78 L397.44 440.78 L398.78 439.10 L400.13 438.09 L401.13 437.08 L401.47 436.41 L401.47 435.40 L402.81 433.72 L404.16 432.71 L405.17 431.71 L405.50 431.03 L405.50 430.03 L406.51 429.02 L407.85 427.67 L408.19 427.00 L408.19 425.99 L409.20 424.99 L410.54 423.64 L410.88 422.97 L410.88 421.96 L411.21 421.29 L411.88 420.96 L412.22 420.28 L412.22 419.28 L413.23 418.27 L414.57 416.92 L414.91 416.25 L414.91 415.24 L415.24 414.57 L415.92 414.24 L416.25 413.56 L416.25 412.56 L416.59 411.88 L417.26 411.55 L417.60 410.88 L417.60 409.87 L417.93 409.20 L418.60 408.86 L418.94 408.19 L418.94 407.18 L419.28 406.51 L419.95 406.17 L420.28 405.50 L420.28 404.49 L421.29 403.49 L421.63 400.13 L422.64 399.45 L422.97 398.78 L422.97 397.77 L423.98 396.77 L424.31 393.41 L425.32 392.73 L425.66 389.38 L426.67 388.70 L427.00 385.34 L428.01 384.67 L428.35 379.97 L429.35 379.30 L429.69 374.59 L430.70 373.92 L431.03 369.22 L432.04 368.55 L432.38 362.50 L433.39 361.83 L433.72 351.75 L434.73 351.08 L434.73 328.57 L433.72 327.56 L433.05 327.22 L432.04 327.22 L431.37 326.89 L431.03 326.22 L430.36 325.88 L429.35 325.88 L428.68 325.54 L428.35 324.87 L427.67 324.54 L426.67 324.54 L425.66 323.53 L424.31 322.18 L423.64 321.85 L422.64 321.85 L421.96 321.51 L421.63 320.84 L420.96 320.50 L419.95 320.50 L419.28 320.17 L418.94 319.50 L418.27 319.16 L417.26 319.16 L416.59 318.82 L416.25 318.15 L415.58 317.82 L414.57 317.82 L413.90 317.48 L413.56 316.81 L412.89 316.47 L411.88 316.47 L410.20 315.13 L409.53 314.12 Z M100.79 315.46 L100.12 316.47 L99.44 317.14 L98.77 317.82 L95.41 318.15 L94.74 319.16 L93.06 320.50 L92.05 320.50 L91.38 320.84 L91.04 321.51 L90.37 321.85 L89.36 321.85 L88.69 322.18 L88.36 322.86 L87.69 323.19 L86.68 323.19 L86.01 323.53 L85.67 324.20 L85.00 324.54 L83.99 324.54 L83.32 324.87 L82.98 325.54 L82.31 325.88 L81.30 325.88 L80.63 326.22 L80.29 326.89 L79.62 327.22 L78.61 327.22 L77.94 327.56 L76.93 328.57 L76.93 347.04 L77.94 347.72 L78.28 360.48 L79.29 361.15 L79.62 367.20 L80.63 367.87 L80.97 373.92 L81.97 374.59 L82.31 379.30 L83.32 379.97 L83.65 383.33 L84.66 384.00 L85.00 388.70 L86.01 389.38 L86.34 392.73 L87.35 393.74 L87.35 394.75 L87.69 395.42 L88.69 396.09 L89.03 399.45 L90.04 400.46 L90.04 401.47 L90.37 402.14 L91.04 402.48 L91.38 403.15 L91.38 404.16 L91.72 404.83 L92.72 405.50 L93.06 408.86 L94.07 409.87 L94.07 410.88 L94.40 411.55 L95.08 411.88 L95.41 412.56 L95.41 413.56 L95.75 414.24 L96.42 414.57 L96.76 415.24 L96.76 416.25 L97.09 416.92 L98.44 418.27 L99.44 419.28 L99.44 420.28 L99.78 420.96 L100.45 421.29 L100.79 421.96 L100.79 422.97 L101.12 423.64 L102.47 424.99 L103.48 425.99 L103.48 427.00 L103.81 427.67 L105.15 429.02 L106.16 430.03 L106.16 431.03 L106.50 431.71 L107.84 433.05 L108.85 434.06 L108.85 435.07 L109.19 435.74 L110.19 436.75 L111.54 437.75 L112.88 439.43 L112.88 440.44 L113.22 441.11 L114.23 442.12 L114.90 442.46 L115.57 443.13 L116.24 443.80 L116.91 444.47 L117.59 445.14 L118.26 445.82 L118.93 446.49 L119.60 447.16 L120.27 447.83 L120.94 448.50 L121.62 449.18 L122.29 449.85 L122.96 450.52 L123.63 451.19 L124.30 451.86 L124.98 452.54 L125.65 453.21 L126.32 453.88 L126.99 454.55 L127.66 455.22 L128.34 455.90 L129.01 456.57 L129.68 457.24 L130.35 457.91 L131.02 458.58 L131.70 459.25 L132.37 459.93 L133.04 460.60 L133.38 461.27 L134.38 462.28 L135.06 462.61 L136.06 462.61 L137.07 463.62 L139.42 463.62 L140.43 462.61 L140.77 461.94 L140.77 460.93 L141.77 459.93 L143.12 458.58 L143.45 457.91 L143.45 456.90 L144.46 455.90 L145.81 454.55 L146.14 453.88 L146.14 452.87 L147.49 451.19 L148.83 450.18 L149.84 449.18 L150.17 448.50 L150.17 447.50 L151.18 446.49 L152.52 445.14 L152.86 444.47 L152.86 443.46 L153.87 442.46 L153.87 441.45 L152.19 440.10 L151.52 439.43 L150.85 438.76 L150.17 438.09 L149.50 437.42 L148.83 436.75 L148.16 436.07 L147.49 435.40 L146.81 434.73 L146.14 434.06 L145.47 433.39 L144.80 432.71 L144.13 432.04 L143.45 431.37 L142.78 430.70 L142.11 430.03 L141.44 429.35 L140.77 428.68 L140.09 428.01 L139.42 427.34 L138.75 426.67 L138.08 425.99 L136.73 424.31 L136.73 423.31 L136.40 422.64 L135.39 421.63 L134.05 420.62 L132.70 418.94 L132.70 417.93 L132.37 417.26 L131.36 416.25 L130.02 415.24 L128.67 413.56 L128.67 412.56 L128.34 411.88 L126.99 410.54 L125.98 409.53 L125.98 408.52 L125.65 407.85 L124.98 407.52 L124.64 406.85 L124.64 405.84 L124.30 405.17 L123.63 404.83 L123.30 404.16 L123.30 403.15 L122.96 402.48 L121.62 401.13 L120.61 400.13 L120.61 399.12 L120.27 398.45 L119.60 398.11 L119.27 397.44 L119.27 396.43 L118.93 395.76 L117.92 395.09 L117.59 391.73 L116.58 390.72 L116.58 389.71 L116.24 389.04 L115.23 388.37 L114.90 385.01 L113.89 384.34 L113.55 380.98 L112.55 380.30 L112.21 376.94 L111.20 376.27 L110.87 372.91 L109.86 372.24 L109.52 367.54 L108.51 366.87 L108.18 362.16 L107.17 361.49 L106.83 352.76 L105.83 352.08 L105.49 339.32 L104.48 338.65 L104.48 318.15 L105.49 317.48 L105.49 315.13 Z" fill="#000000" shape-rendering="geometricPrecision"/>
</svg>