<svg xmlns="http://www.w3.org/2000/svg" viewBox="0 0 512 512" role="img" aria-labelledby="title desc">
<title id="title">ModDrop Drop Broadcast Icon — Navy</title>
<desc id="desc">Single-color ModDrop icon that inherits CSS #0B1222.</desc>
<g>
  <path d="M104 76 L236 169 L204 214 L148 176 L148 299 L104 326 Z" fill="#0B1222"/>
  <path d="M408 76 L276 169 L308 214 L364 176 L364 299 L408 326 Z" fill="#0B1222"/>
  <path d="M256 156 C224 205 202 252 202 304 C202 356 232 392 256 392 C280 392 310 356 310 304 C310 252 288 205 256 156 Z M 198,309 a 58,58 0 1,0 116,0 a 58,58 0 1,0 -116,0" fill="#0B1222" fill-rule="evenodd"/>
  <path d="M159.65,415.01 A144,144 0 0,1 125.49,247.14 L148.15,257.71 A119,119 0 0,0 176.37,396.43 Z" fill="#0B1222"/>
  <path d="M110.34,434.62 A193,193 0 0,1 96.00,200.08 L116.72,214.06 A168,168 0 0,0 129.21,418.22 Z" fill="#0B1222"/>
  <path d="M386.51,247.14 A144,144 0 0,1 352.35,415.01 L335.63,396.43 A119,119 0 0,0 363.85,257.71 Z" fill="#0B1222"/>
  <path d="M416.00,200.08 A193,193 0 0,1 401.66,434.62 L382.79,418.22 A168,168 0 0,0 395.28,214.06 Z" fill="#0B1222"/>
  <circle cx="256" cy="309" r="34" fill="#0B1222"/>
</g>
</svg>
